<svg width="295" height="417" viewBox="0 0 295 417" fill="none" xmlns="http://www.w3.org/2000/svg">
<rect width="295" height="417" rx="22.618" fill="black"/>
<rect x="72.2979" y="122.895" width="150.403" height="32.3562" rx="16.1781" stroke="white" stroke-width="2.2618"/>
<path d="M92.8588 144.241C91.3748 144.241 90.1382 143.751 89.1488 142.771C88.1688 141.782 87.6788 140.559 87.6788 139.103C87.6788 137.647 88.1688 136.429 89.1488 135.449C90.1382 134.46 91.3748 133.965 92.8588 133.965C94.0348 133.965 95.0615 134.301 95.9388 134.973C96.8255 135.636 97.3948 136.466 97.6468 137.465H95.8828C95.6682 136.896 95.2855 136.434 94.7348 136.079C94.1842 135.724 93.5588 135.547 92.8588 135.547C91.8322 135.547 90.9875 135.888 90.3248 136.569C89.6622 137.25 89.3308 138.095 89.3308 139.103C89.3308 140.111 89.6622 140.956 90.3248 141.637C90.9875 142.318 91.8322 142.659 92.8588 142.659C93.5588 142.659 94.1842 142.482 94.7348 142.127C95.2855 141.772 95.6682 141.31 95.8828 140.741H97.6468C97.3948 141.74 96.8255 142.575 95.9388 143.247C95.0615 143.91 94.0348 144.241 92.8588 144.241ZM101.625 144.213C100.822 144.213 100.188 143.947 99.721 143.415C99.2543 142.874 99.021 142.155 99.021 141.259V137.073H100.561V141.007C100.561 141.567 100.682 142.01 100.925 142.337C101.168 142.654 101.513 142.813 101.961 142.813C102.484 142.813 102.899 142.617 103.207 142.225C103.515 141.824 103.669 141.254 103.669 140.517V137.073H105.209V144.073H103.669V143.121C103.258 143.849 102.577 144.213 101.625 144.213ZM107.281 144.073V137.073H108.821V138.319C108.952 137.927 109.19 137.61 109.535 137.367C109.89 137.124 110.268 137.003 110.669 137.003C110.912 137.003 111.112 137.022 111.271 137.059V138.641C111.047 138.557 110.79 138.515 110.501 138.515C110.034 138.515 109.638 138.706 109.311 139.089C108.984 139.462 108.821 139.985 108.821 140.657V144.073H107.281ZM112.599 144.073V137.073H114.139V138.319C114.27 137.927 114.508 137.61 114.853 137.367C115.208 137.124 115.586 137.003 115.987 137.003C116.23 137.003 116.431 137.022 116.589 137.059V138.641C116.365 138.557 116.109 138.515 115.819 138.515C115.353 138.515 114.956 138.706 114.629 139.089C114.303 139.462 114.139 139.985 114.139 140.657V144.073H112.599ZM120.766 144.213C119.72 144.213 118.862 143.872 118.19 143.191C117.518 142.5 117.182 141.628 117.182 140.573C117.182 139.518 117.513 138.65 118.176 137.969C118.838 137.278 119.706 136.933 120.78 136.933C121.862 136.933 122.735 137.311 123.398 138.067C124.06 138.814 124.354 139.775 124.28 140.951H118.708C118.726 141.492 118.932 141.945 119.324 142.309C119.716 142.673 120.215 142.855 120.822 142.855C121.68 142.855 122.268 142.528 122.586 141.875H124.196C123.981 142.556 123.57 143.116 122.964 143.555C122.357 143.994 121.624 144.213 120.766 144.213ZM120.738 138.221C120.234 138.221 119.8 138.366 119.436 138.655C119.081 138.935 118.852 139.336 118.75 139.859H122.628C122.516 139.318 122.287 138.912 121.942 138.641C121.596 138.361 121.195 138.221 120.738 138.221ZM125.861 144.073V137.073H127.401V138.025C127.84 137.297 128.549 136.933 129.529 136.933C130.341 136.933 130.99 137.199 131.475 137.731C131.961 138.263 132.203 138.972 132.203 139.859V144.073H130.663V140.111C130.663 139.551 130.533 139.117 130.271 138.809C130.01 138.492 129.655 138.333 129.207 138.333C128.675 138.333 128.241 138.534 127.905 138.935C127.569 139.336 127.401 139.901 127.401 140.629V144.073H125.861ZM137.13 144.143C136.42 144.143 135.842 143.947 135.394 143.555C134.955 143.154 134.736 142.575 134.736 141.819V138.445H133.28V137.073H134.736V135.127H136.276V137.073H138.278V138.445H136.276V141.567C136.276 141.996 136.369 142.304 136.556 142.491C136.742 142.668 137.041 142.757 137.452 142.757C137.788 142.757 138.063 142.71 138.278 142.617V143.989C137.942 144.092 137.559 144.143 137.13 144.143ZM139.738 144.073V133.573H141.278V144.073H139.738ZM145.588 146.999H143.894L145.392 143.695L142.382 137.073H144.076L146.218 142.029L148.374 137.073H150.082L145.588 146.999ZM154.135 144.073V133.573H155.675V144.073H154.135ZM160.838 144.213C159.793 144.213 158.934 143.872 158.262 143.191C157.59 142.5 157.254 141.628 157.254 140.573C157.254 139.518 157.585 138.65 158.248 137.969C158.911 137.278 159.779 136.933 160.852 136.933C161.935 136.933 162.807 137.311 163.47 138.067C164.133 138.814 164.427 139.775 164.352 140.951H158.78C158.799 141.492 159.004 141.945 159.396 142.309C159.788 142.673 160.287 142.855 160.894 142.855C161.753 142.855 162.341 142.528 162.658 141.875H164.268C164.053 142.556 163.643 143.116 163.036 143.555C162.429 143.994 161.697 144.213 160.838 144.213ZM160.81 138.221C160.306 138.221 159.872 138.366 159.508 138.655C159.153 138.935 158.925 139.336 158.822 139.859H162.7C162.588 139.318 162.359 138.912 162.014 138.641C161.669 138.361 161.267 138.221 160.81 138.221ZM168.803 144.213C167.851 144.213 167.049 143.858 166.395 143.149C165.751 142.44 165.429 141.581 165.429 140.573C165.429 139.565 165.751 138.706 166.395 137.997C167.049 137.288 167.851 136.933 168.803 136.933C169.279 136.933 169.718 137.04 170.119 137.255C170.521 137.46 170.829 137.712 171.043 138.011V137.073H172.583V144.073H171.043V143.135C170.829 143.434 170.521 143.69 170.119 143.905C169.718 144.11 169.279 144.213 168.803 144.213ZM167.585 142.169C167.977 142.598 168.477 142.813 169.083 142.813C169.69 142.813 170.189 142.598 170.581 142.169C170.973 141.74 171.169 141.208 171.169 140.573C171.169 139.938 170.973 139.406 170.581 138.977C170.189 138.548 169.69 138.333 169.083 138.333C168.477 138.333 167.977 138.548 167.585 138.977C167.193 139.406 166.997 139.938 166.997 140.573C166.997 141.208 167.193 141.74 167.585 142.169ZM174.67 144.073V137.073H176.21V138.319C176.34 137.927 176.578 137.61 176.924 137.367C177.278 137.124 177.656 137.003 178.058 137.003C178.3 137.003 178.501 137.022 178.66 137.059V138.641C178.436 138.557 178.179 138.515 177.89 138.515C177.423 138.515 177.026 138.706 176.7 139.089C176.373 139.462 176.21 139.985 176.21 140.657V144.073H174.67ZM179.988 144.073V137.073H181.528V138.025C181.967 137.297 182.676 136.933 183.656 136.933C184.468 136.933 185.117 137.199 185.602 137.731C186.087 138.263 186.33 138.972 186.33 139.859V144.073H184.79V140.111C184.79 139.551 184.659 139.117 184.398 138.809C184.137 138.492 183.782 138.333 183.334 138.333C182.802 138.333 182.368 138.534 182.032 138.935C181.696 139.336 181.528 139.901 181.528 140.629V144.073H179.988ZM189.071 135.547C188.791 135.547 188.548 135.449 188.343 135.253C188.137 135.048 188.035 134.8 188.035 134.511C188.035 134.231 188.137 133.993 188.343 133.797C188.548 133.592 188.791 133.489 189.071 133.489C189.36 133.489 189.603 133.592 189.799 133.797C189.995 133.993 190.093 134.231 190.093 134.511C190.093 134.8 189.995 135.048 189.799 135.253C189.603 135.449 189.36 135.547 189.071 135.547ZM188.301 144.073V137.073H189.841V144.073H188.301ZM191.91 144.073V137.073H193.45V138.025C193.889 137.297 194.598 136.933 195.578 136.933C196.39 136.933 197.039 137.199 197.524 137.731C198.009 138.263 198.252 138.972 198.252 139.859V144.073H196.712V140.111C196.712 139.551 196.581 139.117 196.32 138.809C196.059 138.492 195.704 138.333 195.256 138.333C194.724 138.333 194.29 138.534 193.954 138.935C193.618 139.336 193.45 139.901 193.45 140.629V144.073H191.91ZM203.387 147.139C202.435 147.139 201.651 146.906 201.035 146.439C200.428 145.972 200.078 145.366 199.985 144.619H201.497C201.767 145.422 202.411 145.823 203.429 145.823C203.979 145.823 204.432 145.641 204.787 145.277C205.151 144.922 205.333 144.418 205.333 143.765V142.939C205.109 143.256 204.796 143.518 204.395 143.723C203.993 143.928 203.559 144.031 203.093 144.031C202.15 144.031 201.352 143.69 200.699 143.009C200.055 142.318 199.733 141.474 199.733 140.475C199.733 139.486 200.055 138.65 200.699 137.969C201.352 137.278 202.15 136.933 203.093 136.933C203.559 136.933 203.993 137.036 204.395 137.241C204.796 137.437 205.109 137.694 205.333 138.011V137.073H206.873V143.639C206.873 144.796 206.541 145.669 205.879 146.257C205.225 146.845 204.395 147.139 203.387 147.139ZM201.889 142.015C202.29 142.416 202.785 142.617 203.373 142.617C203.961 142.617 204.455 142.416 204.857 142.015C205.258 141.604 205.459 141.091 205.459 140.475C205.459 139.859 205.258 139.35 204.857 138.949C204.455 138.538 203.961 138.333 203.373 138.333C202.785 138.333 202.29 138.538 201.889 138.949C201.487 139.35 201.287 139.859 201.287 140.475C201.287 141.091 201.487 141.604 201.889 142.015Z" fill="white"/>
<path d="M86.3723 229.544C75.4243 229.544 67.5363 221.588 67.5363 206.152C67.5363 192.62 75.7643 182.76 90.4523 182.76C100.108 182.76 107.384 187.248 110.58 194.796L102.352 201.052C101.128 195.952 97.0483 192.076 90.4523 192.076C82.0203 192.076 78.0083 197.788 78.0083 206.152C78.0083 214.924 82.4283 220.364 90.1803 220.364C96.5043 220.364 99.7683 217.236 101.604 212.408H89.0923V204.588H110.92V229H104.46L102.148 212.408C101.672 223.152 96.0963 229.544 86.3723 229.544ZM150.739 229H118.235V183.44H127.959V220.364H150.739V229ZM173.548 229.68C164.776 229.68 156.684 226.824 152.468 220.16L158.86 212.68C161.92 218.392 168.516 220.908 173.956 220.908C177.9 220.908 180.756 219.684 180.756 216.556C180.756 213.02 177.764 211.864 171.712 210.64L167.292 209.688C160.22 208.26 153.556 205.132 153.556 196.496C153.556 187.588 161.24 182.896 170.488 182.896C179.056 182.896 185.924 186.16 189.732 191.6L183.136 199.012C180.144 194.252 174.84 191.668 169.604 191.668C166.136 191.668 163.62 193.164 163.62 195.816C163.62 199.148 166.544 200.372 171.304 201.46L176.472 202.684C184.972 204.656 190.752 208.124 190.752 216.284C190.752 224.988 183.408 229.68 173.548 229.68ZM228.766 229H196.262V183.44H205.986V220.364H228.766V229Z" fill="white"/>
<rect x="74.667" y="260.618" width="145.665" height="34.618" rx="17.309" fill="white"/>
<path d="M94.9269 283.095C93.8629 283.095 92.9995 282.801 92.3369 282.213C91.6835 281.616 91.3382 280.902 91.3009 280.071H92.9389C92.9949 280.547 93.2142 280.916 93.5969 281.177C93.9889 281.438 94.4275 281.569 94.9129 281.569C95.3982 281.569 95.7949 281.457 96.1029 281.233C96.4202 281 96.5789 280.692 96.5789 280.309C96.5789 279.637 96.1215 279.152 95.2069 278.853L93.9889 278.447C92.3649 277.934 91.5529 276.977 91.5529 275.577C91.5529 274.728 91.8422 274.056 92.4209 273.561C93.0089 273.066 93.7742 272.819 94.7169 272.819C95.6969 272.819 96.4762 273.104 97.0549 273.673C97.6335 274.233 97.9555 274.896 98.0209 275.661H96.3829C96.2802 275.222 96.0702 274.896 95.7529 274.681C95.4355 274.457 95.0809 274.345 94.6889 274.345C94.2595 274.345 93.9049 274.452 93.6249 274.667C93.3449 274.872 93.2002 275.148 93.1909 275.493C93.1909 275.848 93.2982 276.137 93.5129 276.361C93.7275 276.576 94.0682 276.758 94.5349 276.907L95.7669 277.299C97.4095 277.831 98.2309 278.816 98.2309 280.253C98.2309 281.093 97.9229 281.779 97.3069 282.311C96.7002 282.834 95.9069 283.095 94.9269 283.095ZM101.384 282.927H99.8436V272.427H101.384V276.879C101.822 276.151 102.532 275.787 103.512 275.787C104.324 275.787 104.972 276.053 105.458 276.585C105.943 277.117 106.186 277.826 106.186 278.713V282.927H104.646V278.965C104.646 278.405 104.515 277.971 104.254 277.663C103.992 277.346 103.638 277.187 103.19 277.187C102.658 277.187 102.224 277.388 101.888 277.789C101.552 278.19 101.384 278.755 101.384 279.483V282.927ZM111.026 283.067C110.074 283.067 109.271 282.712 108.618 282.003C107.974 281.294 107.652 280.435 107.652 279.427C107.652 278.419 107.974 277.56 108.618 276.851C109.271 276.142 110.074 275.787 111.026 275.787C111.502 275.787 111.941 275.894 112.342 276.109C112.743 276.314 113.051 276.566 113.266 276.865V275.927H114.806V282.927H113.266V281.989C113.051 282.288 112.743 282.544 112.342 282.759C111.941 282.964 111.502 283.067 111.026 283.067ZM109.808 281.023C110.2 281.452 110.699 281.667 111.306 281.667C111.913 281.667 112.412 281.452 112.804 281.023C113.196 280.594 113.392 280.062 113.392 279.427C113.392 278.792 113.196 278.26 112.804 277.831C112.412 277.402 111.913 277.187 111.306 277.187C110.699 277.187 110.2 277.402 109.808 277.831C109.416 278.26 109.22 278.792 109.22 279.427C109.22 280.062 109.416 280.594 109.808 281.023ZM119.762 283.067C118.81 283.067 118.008 282.712 117.354 282.003C116.71 281.294 116.388 280.435 116.388 279.427C116.388 278.419 116.71 277.56 117.354 276.851C118.008 276.142 118.81 275.787 119.762 275.787C120.238 275.787 120.677 275.894 121.078 276.109C121.48 276.314 121.788 276.566 122.002 276.865V272.427H123.542V282.927H122.002V281.989C121.788 282.288 121.48 282.544 121.078 282.759C120.677 282.964 120.238 283.067 119.762 283.067ZM118.544 281.023C118.936 281.452 119.436 281.667 120.042 281.667C120.649 281.667 121.148 281.452 121.54 281.023C121.932 280.594 122.128 280.062 122.128 279.427C122.128 278.792 121.932 278.26 121.54 277.831C121.148 277.402 120.649 277.187 120.042 277.187C119.436 277.187 118.936 277.402 118.544 277.831C118.152 278.26 117.956 278.792 117.956 279.427C117.956 280.062 118.152 280.594 118.544 281.023ZM128.723 283.067C127.677 283.067 126.819 282.726 126.147 282.045C125.475 281.354 125.139 280.482 125.139 279.427C125.139 278.372 125.47 277.504 126.133 276.823C126.795 276.132 127.663 275.787 128.737 275.787C129.819 275.787 130.692 276.165 131.355 276.921C132.017 277.668 132.311 278.629 132.237 279.805H126.665C126.683 280.346 126.889 280.799 127.281 281.163C127.673 281.527 128.172 281.709 128.779 281.709C129.637 281.709 130.225 281.382 130.543 280.729H132.153C131.938 281.41 131.527 281.97 130.921 282.409C130.314 282.848 129.581 283.067 128.723 283.067ZM128.695 277.075C128.191 277.075 127.757 277.22 127.393 277.509C127.038 277.789 126.809 278.19 126.707 278.713H130.585C130.473 278.172 130.244 277.766 129.899 277.495C129.553 277.215 129.152 277.075 128.695 277.075ZM133.818 282.927V275.927H135.358V277.173C135.489 276.781 135.727 276.464 136.072 276.221C136.427 275.978 136.805 275.857 137.206 275.857C137.449 275.857 137.65 275.876 137.808 275.913V277.495C137.584 277.411 137.328 277.369 137.038 277.369C136.572 277.369 136.175 277.56 135.848 277.943C135.522 278.316 135.358 278.839 135.358 279.511V282.927H133.818ZM142.09 282.927V272.427H143.63V282.927H142.09ZM148.569 283.067C147.617 283.067 146.814 282.712 146.161 282.003C145.517 281.294 145.195 280.435 145.195 279.427C145.195 278.419 145.517 277.56 146.161 276.851C146.814 276.142 147.617 275.787 148.569 275.787C149.045 275.787 149.484 275.894 149.885 276.109C150.286 276.314 150.594 276.566 150.809 276.865V275.927H152.349V282.927H150.809V281.989C150.594 282.288 150.286 282.544 149.885 282.759C149.484 282.964 149.045 283.067 148.569 283.067ZM147.351 281.023C147.743 281.452 148.242 281.667 148.849 281.667C149.456 281.667 149.955 281.452 150.347 281.023C150.739 280.594 150.935 280.062 150.935 279.427C150.935 278.792 150.739 278.26 150.347 277.831C149.955 277.402 149.456 277.187 148.849 277.187C148.242 277.187 147.743 277.402 147.351 277.831C146.959 278.26 146.763 278.792 146.763 279.427C146.763 280.062 146.959 280.594 147.351 281.023ZM154.435 282.927V275.927H155.975V276.879C156.414 276.151 157.123 275.787 158.103 275.787C158.915 275.787 159.564 276.053 160.049 276.585C160.535 277.117 160.777 277.826 160.777 278.713V282.927H159.237V278.965C159.237 278.405 159.107 277.971 158.845 277.663C158.584 277.346 158.229 277.187 157.781 277.187C157.249 277.187 156.815 277.388 156.479 277.789C156.143 278.19 155.975 278.755 155.975 279.483V282.927H154.435ZM165.912 285.993C164.96 285.993 164.176 285.76 163.56 285.293C162.953 284.826 162.603 284.22 162.51 283.473H164.022C164.293 284.276 164.937 284.677 165.954 284.677C166.505 284.677 166.957 284.495 167.312 284.131C167.676 283.776 167.858 283.272 167.858 282.619V281.793C167.634 282.11 167.321 282.372 166.92 282.577C166.519 282.782 166.085 282.885 165.618 282.885C164.675 282.885 163.877 282.544 163.224 281.863C162.58 281.172 162.258 280.328 162.258 279.329C162.258 278.34 162.58 277.504 163.224 276.823C163.877 276.132 164.675 275.787 165.618 275.787C166.085 275.787 166.519 275.89 166.92 276.095C167.321 276.291 167.634 276.548 167.858 276.865V275.927H169.398V282.493C169.398 283.65 169.067 284.523 168.404 285.111C167.751 285.699 166.92 285.993 165.912 285.993ZM164.414 280.869C164.815 281.27 165.31 281.471 165.898 281.471C166.486 281.471 166.981 281.27 167.382 280.869C167.783 280.458 167.984 279.945 167.984 279.329C167.984 278.713 167.783 278.204 167.382 277.803C166.981 277.392 166.486 277.187 165.898 277.187C165.31 277.187 164.815 277.392 164.414 277.803C164.013 278.204 163.812 278.713 163.812 279.329C163.812 279.945 164.013 280.458 164.414 280.869ZM173.977 283.067C173.174 283.067 172.539 282.801 172.073 282.269C171.606 281.728 171.373 281.009 171.373 280.113V275.927H172.913V279.861C172.913 280.421 173.034 280.864 173.277 281.191C173.519 281.508 173.865 281.667 174.313 281.667C174.835 281.667 175.251 281.471 175.559 281.079C175.867 280.678 176.021 280.108 176.021 279.371V275.927H177.561V282.927H176.021V281.975C175.61 282.703 174.929 283.067 173.977 283.067ZM182.503 283.067C181.551 283.067 180.748 282.712 180.095 282.003C179.451 281.294 179.129 280.435 179.129 279.427C179.129 278.419 179.451 277.56 180.095 276.851C180.748 276.142 181.551 275.787 182.503 275.787C182.979 275.787 183.417 275.894 183.819 276.109C184.22 276.314 184.528 276.566 184.743 276.865V275.927H186.283V282.927H184.743V281.989C184.528 282.288 184.22 282.544 183.819 282.759C183.417 282.964 182.979 283.067 182.503 283.067ZM181.285 281.023C181.677 281.452 182.176 281.667 182.783 281.667C183.389 281.667 183.889 281.452 184.281 281.023C184.673 280.594 184.869 280.062 184.869 279.427C184.869 278.792 184.673 278.26 184.281 277.831C183.889 277.402 183.389 277.187 182.783 277.187C182.176 277.187 181.677 277.402 181.285 277.831C180.893 278.26 180.697 278.792 180.697 279.427C180.697 280.062 180.893 280.594 181.285 281.023ZM191.533 285.993C190.581 285.993 189.797 285.76 189.181 285.293C188.574 284.826 188.224 284.22 188.131 283.473H189.643C189.914 284.276 190.558 284.677 191.575 284.677C192.126 284.677 192.578 284.495 192.933 284.131C193.297 283.776 193.479 283.272 193.479 282.619V281.793C193.255 282.11 192.942 282.372 192.541 282.577C192.14 282.782 191.706 282.885 191.239 282.885C190.296 282.885 189.498 282.544 188.845 281.863C188.201 281.172 187.879 280.328 187.879 279.329C187.879 278.34 188.201 277.504 188.845 276.823C189.498 276.132 190.296 275.787 191.239 275.787C191.706 275.787 192.14 275.89 192.541 276.095C192.942 276.291 193.255 276.548 193.479 276.865V275.927H195.019V282.493C195.019 283.65 194.688 284.523 194.025 285.111C193.372 285.699 192.541 285.993 191.533 285.993ZM190.035 280.869C190.436 281.27 190.931 281.471 191.519 281.471C192.107 281.471 192.602 281.27 193.003 280.869C193.404 280.458 193.605 279.945 193.605 279.329C193.605 278.713 193.404 278.204 193.003 277.803C192.602 277.392 192.107 277.187 191.519 277.187C190.931 277.187 190.436 277.392 190.035 277.803C189.634 278.204 189.433 278.713 189.433 279.329C189.433 279.945 189.634 280.458 190.035 280.869ZM200.186 283.067C199.14 283.067 198.282 282.726 197.61 282.045C196.938 281.354 196.602 280.482 196.602 279.427C196.602 278.372 196.933 277.504 197.596 276.823C198.258 276.132 199.126 275.787 200.2 275.787C201.282 275.787 202.155 276.165 202.818 276.921C203.48 277.668 203.774 278.629 203.7 279.805H198.128C198.146 280.346 198.352 280.799 198.744 281.163C199.136 281.527 199.635 281.709 200.242 281.709C201.1 281.709 201.688 281.382 202.006 280.729H203.616C203.401 281.41 202.99 281.97 202.384 282.409C201.777 282.848 201.044 283.067 200.186 283.067ZM200.158 277.075C199.654 277.075 199.22 277.22 198.856 277.509C198.501 277.789 198.272 278.19 198.17 278.713H202.048C201.936 278.172 201.707 277.766 201.362 277.495C201.016 277.215 200.615 277.075 200.158 277.075Z" fill="black"/>
</svg>
